<svg id="Layer_5" enable-background="new 0 0 64 64" height="512" viewBox="0 0 64 64" width="512" xmlns="http://www.w3.org/2000/svg"><g><g><g><path d="m62 14v32c0 1.1-.9 2-2 2h-36.42c-1.3-4.62-5.54-8-10.58-8-1.8 0-3.5.43-5 1.2v-27.2z" fill="#ffeaa7"/></g><g><path d="m62 4v10h-54v-10c0-1.1.9-2 2-2h50c1.1 0 2 .9 2 2z" fill="#5cd6b3"/></g><g><path d="m16 7v2c0 .55-.45 1-1 1h-2c-.55 0-1-.45-1-1v-2c0-.55.45-1 1-1h2c.55 0 1 .45 1 1z" fill="#e6e9ed"/></g><g><path d="m24 7v2c0 .55-.45 1-1 1h-2c-.55 0-1-.45-1-1v-2c0-.55.45-1 1-1h2c.55 0 1 .45 1 1z" fill="#e6e9ed"/></g><g><path d="m32 7v2c0 .55-.45 1-1 1h-2c-.55 0-1-.45-1-1v-2c0-.55.45-1 1-1h2c.55 0 1 .45 1 1z" fill="#e6e9ed"/></g><g><path d="m58 7v2c0 .55-.45 1-1 1h-14c-.55 0-1-.45-1-1v-2c0-.55.45-1 1-1h14c.55 0 1 .45 1 1z" fill="#e6e9ed"/></g><g><path d="m51 26c3.87 0 7 3.13 7 7s-3.13 7-7 7h-18c-3.87 0-7-3.13-7-7s3.13-7 7-7c0-3.31 2.69-6 6-6 1.86 0 3.51.84 4.62 2.17.44-.11.9-.17 1.38-.17 2.62 0 4.84 1.68 5.66 4.02.11-.01.22-.02.34-.02z" fill="#e6e9ed"/></g><g><path d="m23.58 48c.28.95.42 1.96.42 3 0 6.08-4.92 11-11 11s-11-4.92-11-11c0-4.28 2.44-7.98 6-9.8 1.5-.77 3.2-1.2 5-1.2 5.04 0 9.28 3.38 10.58 8z" fill="#e6e9ed"/></g><g><path d="m12 18h10v4h-10z" fill="#ff826e"/></g></g><g><path d="m13 54c-1.534 0-3.036.622-4.121 1.707l-.586.586 1.414 1.414.586-.586c.713-.713 1.699-1.121 2.707-1.121s1.994.408 2.707 1.121l.586.586 1.414-1.414-.586-.586c-1.085-1.085-2.587-1.707-4.121-1.707z"/><path d="m10.293 50.707 1.414-1.414-1.293-1.293 1.293-1.293-1.414-1.414-1.293 1.293-1.293-1.293-1.414 1.414 1.293 1.293-1.293 1.293 1.414 1.414 1.293-1.293z"/><path d="m18.293 45.293-1.293 1.293-1.293-1.293-1.414 1.414 1.293 1.293-1.293 1.293 1.414 1.414 1.293-1.293 1.293 1.293 1.414-1.414-1.293-1.293 1.293-1.293z"/><path d="m60 1h-50c-1.654 0-3 1.346-3 3v36.623c-3.581 2.079-6 5.947-6 10.377 0 6.617 5.383 12 12 12s12-5.383 12-12c0-.683-.071-1.348-.181-2h35.181c1.654 0 3-1.346 3-3v-42c0-1.654-1.346-3-3-3zm-50 2h50c.552 0 1 .448 1 1v9h-52v-9c0-.552.448-1 1-1zm3 58c-5.514 0-10-4.486-10-10s4.486-10 10-10 10 4.486 10 10-4.486 10-10 10zm47-14h-35.7c-1.653-4.653-6.087-8-11.3-8-1.404 0-2.747.255-4 .7v-24.7h52v31c0 .552-.448 1-1 1z"/><path d="m13 11h2c1.103 0 2-.897 2-2v-2c0-1.103-.897-2-2-2h-2c-1.103 0-2 .897-2 2v2c0 1.103.897 2 2 2zm0-4h2l.002 2h-2.002z"/><path d="m21 11h2c1.103 0 2-.897 2-2v-2c0-1.103-.897-2-2-2h-2c-1.103 0-2 .897-2 2v2c0 1.103.897 2 2 2zm0-4h2l.002 2h-2.002z"/><path d="m29 11h2c1.103 0 2-.897 2-2v-2c0-1.103-.897-2-2-2h-2c-1.103 0-2 .897-2 2v2c0 1.103.897 2 2 2zm0-4h2l.002 2h-2.002z"/><path d="m43 11h14c1.103 0 2-.897 2-2v-2c0-1.103-.897-2-2-2h-14c-1.103 0-2 .897-2 2v2c0 1.103.897 2 2 2zm0-4h14l.002 2h-14.002z"/><path d="m35 33h-1c-.552 0-1-.448-1-1v-3h-2v3c0 1.654 1.346 3 3 3h1v2h2v-8h-2z"/><path d="m51 33h-1c-.552 0-1-.448-1-1v-3h-2v3c0 1.654 1.346 3 3 3h1v2h2v-8h-2z"/><path d="m43 29h-2c-1.103 0-2 .897-2 2v4c0 1.103.897 2 2 2h2c1.103 0 2-.897 2-2v-4c0-1.103-.897-2-2-2zm-2 6v-4h2l.002 4z"/><path d="m51.321 25.007c-1.288-2.723-4.218-4.404-7.344-3.928-1.312-1.328-3.094-2.079-4.977-2.079-3.539 0-6.474 2.641-6.937 6.055-3.971.465-7.063 3.85-7.063 7.945 0 4.411 3.589 8 8 8h18c4.411 0 8-3.589 8-8 0-4.304-3.416-7.824-7.679-7.993zm-.321 13.993h-18c-3.309 0-6-2.691-6-6s2.691-6 6-6h1v-1c0-2.757 2.243-5 5-5 1.489 0 2.892.658 3.847 1.807l.396.477.603-.144c2.621-.618 5.043.854 5.868 3.209l.247.706.879-.047c.053-.003.106-.008.16-.008 3.309 0 6 2.691 6 6s-2.691 6-6 6z"/><path d="m11 23h12v-6h-12zm2-4h8v2h-8z"/><path d="m11 25h12v2h-12z"/><path d="m11 29h12v2h-12z"/><path d="m11 33h12v2h-12z"/><path d="m53 43h2v2h-2z"/><path d="m49 43h2v2h-2z"/><path d="m57 43h2v2h-2z"/><path d="m45 43h2v2h-2z"/></g></g></svg>