<?xml version="1.0" encoding="iso-8859-1"?>
<!-- Generator: Adobe Illustrator 19.0.0, SVG Export Plug-In . SVG Version: 6.00 Build 0)  -->
<svg version="1.1" id="Layer_1" xmlns="http://www.w3.org/2000/svg" xmlns:xlink="http://www.w3.org/1999/xlink" x="0px" y="0px"
	 viewBox="0 0 482.485 482.485" style="enable-background:new 0 0 482.485 482.485;" xml:space="preserve">
<path style="fill:#3A556A;" d="M471.04,0.301H12.047c-6.626,0-11.445,5.421-11.445,11.445v68.668h481.882V11.746
	C482.485,5.722,477.064,0.301,471.04,0.301z"/>
<circle style="fill:#FCD462;" cx="359.002" cy="40.659" r="13.252"/>
<circle style="fill:#44C4A1;" cx="405.986" cy="40.659" r="13.252"/>
<circle style="fill:#E56353;" cx="452.969" cy="40.659" r="13.252"/>
<path style="fill:#EBF0F3;" d="M106.014,71.981h81.92l-5.421-14.456c-0.602-2.409-3.012-3.614-5.421-3.614H99.388
	c0,0.602,0.602,0.602,0.602,1.205L106.014,71.981z"/>
<path style="fill:#64798A;" d="M482.485,80.414h-378.88c-2.409,0-4.819-1.807-5.421-3.614l-6.626-19.275
	c-0.602-2.409-3.012-3.614-5.421-3.614H27.106c-2.409,0-4.819,1.807-5.421,3.614L15.059,76.8c-0.602,2.409-3.012,3.614-5.421,3.614
	H0.602v40.358h481.882V80.414z"/>
<path style="fill:#EBF0F3;" d="M0.602,470.739c0,6.626,5.421,11.445,11.445,11.445h458.391c6.626,0,11.445-5.421,11.445-11.445
	V120.772H0v349.967H0.602z"/>
<g>
	<path style="fill:#FFFFFF;" d="M0.602,452.668c0,6.626,5.421,11.445,11.445,11.445h458.391c6.626,0,11.445-5.421,11.445-11.445
		V120.772H0v331.896H0.602z"/>
	<path style="fill:#FFFFFF;" d="M87.944,105.713H35.539c-3.012,0-5.421-2.409-5.421-5.421s2.409-5.421,5.421-5.421h52.405
		c3.012,0,5.421,2.409,5.421,5.421S90.955,105.713,87.944,105.713z"/>
	<path style="fill:#FFFFFF;" d="M177.694,105.713h-52.405c-3.012,0-5.421-2.409-5.421-5.421s2.409-5.421,5.421-5.421h52.405
		c3.012,0,5.421,2.409,5.421,5.421C183.115,103.304,180.706,105.713,177.694,105.713z"/>
	<path style="fill:#FFFFFF;" d="M268.047,105.713h-52.405c-3.012,0-5.421-2.409-5.421-5.421s2.409-5.421,5.421-5.421h52.405
		c3.012,0,5.421,2.409,5.421,5.421C272.866,103.304,270.456,105.713,268.047,105.713z"/>
	<path style="fill:#FFFFFF;" d="M357.798,105.713h-52.405c-3.012,0-5.421-2.409-5.421-5.421s2.409-5.421,5.421-5.421h52.405
		c3.012,0,5.421,2.409,5.421,5.421C362.616,103.304,360.809,105.713,357.798,105.713z"/>
	<path style="fill:#FFFFFF;" d="M447.548,105.713h-52.405c-3.012,0-5.421-2.409-5.421-5.421s2.409-5.421,5.421-5.421h52.405
		c3.012,0,5.421,2.409,5.421,5.421S450.56,105.713,447.548,105.713z"/>
</g>
<circle style="fill:#64798A;" cx="241.544" cy="203.294" r="59.633"/>
<g>
	<circle style="fill:#EBF0F3;" cx="241.544" cy="172.574" r="22.287"/>
	<path style="fill:#EBF0F3;" d="M241.544,252.687c17.468,0,33.129-9.638,41.562-23.492c-7.228-16.264-22.889-27.708-41.562-27.708
		c-18.673,0-34.936,11.445-41.562,27.708C208.414,243.652,224.075,252.687,241.544,252.687z"/>
</g>
<circle style="fill:#44C4A1;" cx="386.711" cy="203.294" r="59.633"/>
<g>
	<circle style="fill:#FFFFFF;" cx="386.711" cy="172.574" r="22.287"/>
	<path style="fill:#FFFFFF;" d="M386.711,252.687c17.468,0,33.129-9.638,41.562-23.492c-7.228-16.264-22.889-27.708-41.562-27.708
		c-18.673,0-34.936,11.445-41.562,27.708C353.581,243.652,369.242,252.687,386.711,252.687z"/>
</g>
<circle style="fill:#FCD462;" cx="96.376" cy="203.294" r="59.633"/>
<g>
	<circle style="fill:#DC8744;" cx="96.376" cy="172.574" r="22.287"/>
	<path style="fill:#DC8744;" d="M96.376,252.687c17.468,0,33.129-9.638,41.562-23.492c-7.228-16.264-22.889-27.708-41.562-27.708
		s-34.936,11.445-41.562,27.708C63.247,243.652,78.908,252.687,96.376,252.687z"/>
</g>
<rect x="36.744" y="286.419" style="fill:#27A2DB;" width="140.348" height="149.384"/>
<rect x="36.744" y="420.744" style="fill:#2D93BA;" width="140.348" height="15.059"/>
<g>
	<rect x="210.221" y="294.852" style="fill:#E1E6E9;" width="236.725" height="9.035"/>
	<rect x="210.221" y="325.572" style="fill:#E1E6E9;" width="236.725" height="9.035"/>
	<rect x="210.221" y="356.894" style="fill:#E1E6E9;" width="236.725" height="9.035"/>
	<rect x="210.221" y="387.614" style="fill:#E1E6E9;" width="236.725" height="9.035"/>
	<rect x="210.221" y="418.334" style="fill:#E1E6E9;" width="149.384" height="9.035"/>
</g>
<g>
</g>
<g>
</g>
<g>
</g>
<g>
</g>
<g>
</g>
<g>
</g>
<g>
</g>
<g>
</g>
<g>
</g>
<g>
</g>
<g>
</g>
<g>
</g>
<g>
</g>
<g>
</g>
<g>
</g>
</svg>
