<?xml version="1.0" encoding="iso-8859-1"?>
<!-- Generator: Adobe Illustrator 19.0.0, SVG Export Plug-In . SVG Version: 6.00 Build 0)  -->
<svg version="1.1" id="Layer_1" xmlns="http://www.w3.org/2000/svg" xmlns:xlink="http://www.w3.org/1999/xlink" x="0px" y="0px"
	 viewBox="0 0 482.204 482.204" style="enable-background:new 0 0 482.204 482.204;" xml:space="preserve">
<g>
	<polygon style="fill:#EBF0F3;" points="482.204,164.603 468.35,164.603 468.35,154.363 471.964,154.363 471.964,150.749 
		482.204,150.749 	"/>
	<path style="fill:#EBF0F3;" d="M448.472,164.603h-19.275v-10.24h19.275V164.603z M409.922,164.603h-19.275v-10.24h19.275V164.603z
		 M370.769,164.603h-19.275v-10.24h19.275V164.603z"/>
	<polygon style="fill:#EBF0F3;" points="331.616,164.603 317.762,164.603 317.762,150.749 328.002,150.749 328.002,154.363 
		331.616,154.363 	"/>
	<path style="fill:#EBF0F3;" d="M328.002,131.474h-10.24v-19.878h10.24V131.474z M328.002,92.321h-10.24V73.046h10.24V92.321z
		 M328.002,53.168h-10.24V33.893h10.24V53.168z"/>
	<polygon style="fill:#EBF0F3;" points="328.002,14.015 317.762,14.015 317.762,0.161 331.616,0.161 331.616,10.401 328.002,10.401 
			"/>
	<path style="fill:#EBF0F3;" d="M448.472,10.401h-19.275V0.161h19.275V10.401z M409.922,10.401h-19.275V0.161h19.275V10.401z
		 M370.769,10.401h-19.275V0.161h19.275V10.401z"/>
	<polygon style="fill:#EBF0F3;" points="482.204,14.015 471.964,14.015 471.964,10.401 468.35,10.401 468.35,0.161 482.204,0.161 	
		"/>
	<path style="fill:#EBF0F3;" d="M482.204,131.474h-10.24v-19.878h10.24V131.474z M482.204,92.321h-10.24V73.046h10.24V92.321z
		 M482.204,53.168h-10.24V33.893h10.24V53.168z"/>
</g>
<path style="fill:#E1E6E9;" d="M482.204,460.961h-4.216l-35.539-105.412c-1.205-3.012-7.228-5.421-14.456-5.421H54.533
	c-7.228,0-13.252,2.409-14.456,5.421L5.14,460.358H0.322v15.059l0,0c0,3.614,5.421,6.626,12.649,6.626h455.981
	c7.228,0,12.649-3.012,12.649-6.626l0,0v-14.456H482.204z"/>
<path style="fill:#64798A;" d="M427.992,90.514H54.533c-7.228,0-12.649,5.421-12.649,12.649v215.642
	c0,7.228,5.421,12.649,12.649,12.649h373.459c7.228,0,12.649-5.421,12.649-12.649V103.163
	C440.642,95.935,434.618,90.514,427.992,90.514z"/>
<path style="fill:#EBF0F3;" d="M427.992,335.069H54.533c-7.228,0-13.252,2.409-14.456,5.421L0.322,459.154
	c-1.807,4.819,4.216,8.433,12.649,8.433h455.981c8.433,0,13.854-3.614,12.649-8.433l-39.755-118.061
	C441.244,338.081,434.618,335.069,427.992,335.069z"/>
<g>
	<path style="fill:#E1E6E9;" d="M420.162,345.911H62.364h-0.602l-16.866,57.224c0,0,0,0,0.602,0h391.529h0.602L420.162,345.911
		C420.764,345.911,420.162,345.911,420.162,345.911z"/>
	<path style="fill:#E1E6E9;" d="M309.931,410.966H172.595c-4.819,0-9.035,1.807-9.035,4.216l-3.614,33.129
		c-0.602,3.012,3.614,4.819,9.035,4.819H314.75c5.421,0,9.035-2.409,9.035-4.819l-3.614-33.129
		C318.966,412.773,314.75,410.966,309.931,410.966z"/>
</g>
<path style="fill:#3A556A;" d="M399.682,324.227H82.844c-0.602,0-1.205,0.602-1.205,0.602v16.264c0,0.602,0.602,0.602,1.205,0.602
	h317.44c0.602,0,1.205-0.602,1.205-0.602v-16.264C400.886,324.829,400.284,324.227,399.682,324.227z"/>
<circle style="fill:#2F4859;" cx="241.263" cy="101.958" r="5.421"/>
<circle style="fill:#3A556A;" cx="241.263" cy="101.958" r="2.409"/>
<rect x="65.376" y="113.403" style="fill:#EBF0F3;" width="352.376" height="194.56"/>
<rect x="65.376" y="300.133" style="fill:#E1E6E9;" width="352.376" height="7.831"/>
<circle style="fill:#FFFFFF;" cx="241.263" cy="210.984" r="60.235"/>
<g>
	<circle style="fill:#44C4A1;" cx="241.263" cy="179.662" r="22.889"/>
	<path style="fill:#44C4A1;" d="M241.263,260.98c18.071,0,33.732-9.638,42.165-23.492c-7.228-16.264-23.492-27.708-42.165-27.708
		c-18.673,0-34.936,11.445-42.165,27.708C207.531,251.342,223.192,260.98,241.263,260.98z"/>
</g>
<rect x="41.884" y="149.544" style="fill:#3A556A;" width="22.889" height="76.499"/>
<path style="fill:#E1E6E9;" d="M122.599,226.043c3.614,0,6.024-3.012,6.024-6.024v-64.452c0-3.614-3.012-6.024-6.024-6.024H64.773
	v76.499H122.599z"/>
<path style="fill:#FCD462;" d="M114.166,140.509H6.345c-3.614,0-6.024,3.012-6.024,6.024v63.849c0,3.614,3.012,6.024,6.024,6.024
	h107.821c3.614,0,6.024-3.012,6.024-6.024v-63.247C120.19,143.521,117.178,140.509,114.166,140.509z"/>
<g>
	<line style="fill:none;stroke:#DC8744;stroke-miterlimit:10;" x1="12.971" y1="157.375" x2="107.54" y2="157.375"/>
	<line style="fill:none;stroke:#DC8744;stroke-miterlimit:10;" x1="12.971" y1="179.06" x2="107.54" y2="179.06"/>
	<line style="fill:none;stroke:#DC8744;stroke-miterlimit:10;" x1="12.971" y1="200.744" x2="68.388" y2="200.744"/>
</g>
<g>
	<polygon style="fill:#64798A;" points="393.658,240.5 324.388,210.984 354.505,279.653 361.131,258.57 379.202,276.641 
		390.646,265.196 372.576,247.126 	"/>
	<rect x="0.322" y="0.161" style="fill:#64798A;" width="31.925" height="9.638"/>
	<rect x="0.322" y="30.881" style="fill:#64798A;" width="31.925" height="9.638"/>
	<rect x="214.157" y="30.881" style="fill:#64798A;" width="31.925" height="9.638"/>
	<rect x="0.322" y="62.203" style="fill:#64798A;" width="31.925" height="9.638"/>
</g>
<rect x="172.595" y="62.203" style="fill:#E56353;" width="31.925" height="9.638"/>
<rect x="246.082" y="62.203" style="fill:#27A2DB;" width="31.925" height="9.638"/>
<rect x="50.317" y="0.161" style="fill:#E56353;" width="31.925" height="9.638"/>
<rect x="115.973" y="0.161" style="fill:#64798A;" width="31.925" height="9.638"/>
<g>
	<rect x="182.232" y="0.161" style="fill:#44C4A1;" width="31.925" height="9.638"/>
	<rect x="82.242" y="30.881" style="fill:#44C4A1;" width="83.727" height="9.638"/>
</g>
<rect x="50.317" y="62.203" style="fill:#64798A;" width="92.762" height="9.638"/>
<g>
</g>
<g>
</g>
<g>
</g>
<g>
</g>
<g>
</g>
<g>
</g>
<g>
</g>
<g>
</g>
<g>
</g>
<g>
</g>
<g>
</g>
<g>
</g>
<g>
</g>
<g>
</g>
<g>
</g>
</svg>
